<svg width="86" height="86" viewBox="0 0 86 86" fill="none" xmlns="http://www.w3.org/2000/svg">
<path d="M43.0001 10L49.9269 13.168L53.9008 14.9295C54.7529 15.3028 55.4958 15.6168 56.1337 15.8854L57.8791 16.5681L61.0418 17.7152C63.4798 18.5709 66.5832 19.6041 70.3428 20.824V44.7888C70.3428 53.8194 62.3497 63.9106 49.7766 72.0445L48.4641 72.8821C47.8717 73.2462 46.0488 74.2886 43.0001 76L37.7139 73.0232L37.5225 72.9094C24.1564 64.689 15.6027 54.1927 15.6574 44.7888V20.824L19.5811 19.5404L24.3569 17.9246C26.4532 17.1963 28.112 16.5909 29.3288 16.0993L31.8169 15.0524L36.6202 12.9313C38.484 12.0892 40.6122 11.1106 43.0047 10.0046L43.0001 10ZM43.0001 15.0114L39.8785 16.4452L35.6085 18.3661C33.7173 19.2036 32.1906 19.8545 31.0331 20.3233C29.3288 21.0061 26.8634 21.8937 23.6232 22.9906L20.2145 24.124V44.8161C20.1781 51.8577 26.991 60.7517 38.6481 68.2348L40.0836 69.136L42.9819 70.7792L45.8848 69.1178L46.0579 69.0131C58.0204 61.5847 65.2571 52.6952 65.7584 45.5717L65.7857 44.7888V24.124L60.0073 22.1759L57.1181 21.1426L54.9671 20.3233L53.7048 19.7999L52.1964 19.1535C50.8293 18.5618 49.2069 17.8426 47.3203 16.9869L43.0001 15.0114ZM57.3551 30.064L60.5815 33.2821L41.2456 52.595L29.9668 41.3295L33.1886 38.1114L41.2456 46.1543L57.3551 30.064Z" fill="#F8B86D"/>
</svg>
