<svg width="86" height="86" viewBox="0 0 86 86" fill="none" xmlns="http://www.w3.org/2000/svg">
<path fill-rule="evenodd" clip-rule="evenodd" d="M57.755 27.921C56.3693 33.5772 52.5433 36.0001 48.7956 35.0763C45.048 34.1524 42.7908 30.2393 44.1765 24.583C45.5623 18.9267 49.7369 15.0833 53.4845 16.0071C57.2321 16.9309 59.1495 22.2647 57.755 27.921ZM66.087 32.758C62.9756 31.3984 58.7922 34.1001 56.7441 38.7977C54.696 43.4953 56.073 47.2254 59.1844 48.585C62.2958 49.9446 65.965 48.4194 68.0218 43.7219C70.0699 39.0243 69.2071 34.1176 66.0957 32.758H66.087ZM58.9577 52.2194C53.6201 48.9562 53.0338 47.6254 51.1418 43.3308L51.1417 43.3306L51.1413 43.3296C50.9111 42.807 50.6615 42.2406 50.3817 41.6215C47.802 35.9129 42.5902 36.1134 42.5902 36.1134C42.5902 36.1134 37.3697 36.1918 35.095 42.0311C34.8398 42.6863 34.6142 43.2834 34.4066 43.8329C32.764 48.1807 32.2485 49.5452 27.103 53.0735C21.316 57.0477 22.7715 62.1636 25.3774 66.0768C27.992 69.99 32.9249 70.2601 34.1363 70.0945C34.521 70.0416 35.1893 69.7229 36.0548 69.3101L36.0548 69.3101C37.895 68.4325 40.6263 67.1299 43.4182 67.0529C46.1984 66.976 48.9866 68.1276 50.87 68.9055C51.7615 69.2738 52.4503 69.5583 52.8395 69.5891C54.0596 69.6936 58.9751 69.162 61.3718 65.1094C63.7598 61.0567 64.9451 55.8798 58.9489 52.2106L58.9577 52.2194ZM27.3471 49.4392C30.3801 47.914 31.5566 44.1141 29.2558 39.5386C26.9549 34.963 22.6321 32.4878 19.5992 34.0043C16.5662 35.5295 15.9649 40.4711 18.2657 45.0554C20.5666 49.6309 24.3142 50.9644 27.3471 49.4392ZM41.0563 24.6702C42.7471 30.248 40.699 34.2745 37.0036 35.3988V35.39C33.3083 36.5143 29.3603 34.3093 27.6695 28.7315C25.9787 23.1624 27.5998 17.7327 31.2951 16.6085C34.9904 15.4842 39.3568 19.0923 41.0563 24.6702Z" fill="#F8B86D"/>
</svg>
