<svg width="16" height="12" viewBox="0 0 16 12" fill="none" xmlns="http://www.w3.org/2000/svg">
<path d="M9.35719 0.443059C9.42679 0.510862 9.72439 0.766878 9.96919 1.00536C11.5088 2.40351 14.0288 6.05085 14.798 7.95986C14.9216 8.24978 15.1832 8.98276 15.2 9.37438C15.2 9.74964 15.1136 10.1074 14.9384 10.4487C14.6936 10.8742 14.3084 11.2156 13.8536 11.4026C13.538 11.523 12.5936 11.7101 12.5768 11.7101C11.5436 11.8971 9.86479 12 8.00959 12C6.24199 12 4.63159 11.8971 3.58279 11.744C3.56599 11.7264 2.39239 11.5394 1.99039 11.3348C1.25599 10.9596 0.799988 10.2266 0.799988 9.44218V9.37438C0.817988 8.86352 1.27399 7.78919 1.29079 7.78919C2.06119 5.98305 4.45759 2.41987 6.04999 0.987823C6.04999 0.987823 6.45919 0.584511 6.71479 0.409157C7.08199 0.135606 7.53679 0 7.99159 0C8.49919 0 8.97199 0.153142 9.35719 0.443059Z" fill="white"/>
</svg>
