<svg width="25" height="24" viewBox="0 0 25 24" fill="none" xmlns="http://www.w3.org/2000/svg">
<path d="M16.8902 4C18.0822 4 19.2289 4.47111 20.0724 5.31644C20.9169 6.16 21.3889 7.29778 21.3889 8.48889V15.5111C21.3889 17.9911 19.3711 20 16.8902 20H8.10889C5.628 20 3.61111 17.9911 3.61111 15.5111V8.48889C3.61111 6.00889 5.61911 4 8.10889 4H16.8902ZM17.8956 8.62222C17.7089 8.61244 17.5311 8.67556 17.3969 8.8L13.3889 12C12.8733 12.4276 12.1347 12.4276 11.6111 12L7.61111 8.8C7.33467 8.59556 6.95245 8.62222 6.72223 8.86222C6.48223 9.10222 6.45556 9.48444 6.65911 9.75111L6.77556 9.86667L10.82 13.0222C11.3178 13.4133 11.9213 13.6267 12.5533 13.6267C13.1836 13.6267 13.7978 13.4133 14.2947 13.0222L18.3044 9.81333L18.3756 9.74222C18.588 9.48444 18.588 9.11111 18.3658 8.85333C18.2422 8.72089 18.0724 8.64 17.8956 8.62222Z" fill="#F8B86D"/>
</svg>
