<svg width="28" height="28" viewBox="0 0 28 28" fill="none" xmlns="http://www.w3.org/2000/svg">
<path fill-rule="evenodd" clip-rule="evenodd" d="M7.54781 2.25H20.4522C23.3781 2.25 25.75 4.6219 25.75 7.54778V20.4522C25.75 23.3781 23.3781 25.75 20.4522 25.75H7.54781C4.62193 25.75 2.25003 23.3781 2.25003 20.4522V7.54778C2.25003 4.6219 4.62193 2.25 7.54781 2.25ZM13.9978 6.53436C18.3182 6.53436 21.8329 9.38667 21.8329 12.8926C21.8329 14.2938 21.2887 15.5598 20.1534 16.8046C18.5098 18.6971 14.8343 21.0023 13.9978 21.3541C13.1838 21.6964 13.2788 21.1596 13.3163 20.9478C13.3174 20.9419 13.3183 20.9364 13.3193 20.9311C13.3391 20.8136 13.4309 20.2606 13.4309 20.2606C13.4573 20.0608 13.4845 19.7502 13.4052 19.5519C13.3178 19.3338 12.9704 19.2207 12.7149 19.1656C8.95341 18.6684 6.16278 16.0357 6.16278 12.8926C6.16278 9.38667 9.6775 6.53436 13.9978 6.53436Z" fill="#F8B86D"/>
<path d="M19.2259 14.9172H17.0227C16.9838 14.9172 16.9464 14.9017 16.9189 14.8742C16.8913 14.8467 16.8759 14.8093 16.8759 14.7703V11.3518C16.8759 11.3129 16.8913 11.2755 16.9189 11.248C16.9464 11.2204 16.9838 11.205 17.0227 11.205H19.2259C19.2648 11.205 19.3022 11.2204 19.3297 11.248C19.3573 11.2755 19.3727 11.3129 19.3727 11.3518V11.9078C19.3727 11.9467 19.3573 11.9841 19.3297 12.0116C19.3022 12.0392 19.2648 12.0546 19.2259 12.0546H17.7299V12.6311H19.2259C19.2648 12.6311 19.3022 12.6466 19.3297 12.6741C19.3573 12.7017 19.3727 12.739 19.3727 12.778V13.339C19.3727 13.378 19.3573 13.4154 19.3297 13.4429C19.3022 13.4705 19.2648 13.4859 19.2259 13.4859H17.7299V14.0631H19.2259C19.2648 14.0631 19.3022 14.0786 19.3297 14.1062C19.3573 14.1337 19.3727 14.1711 19.3727 14.21V14.7652C19.3734 14.7849 19.3701 14.8046 19.3631 14.823C19.356 14.8414 19.3453 14.8582 19.3316 14.8724C19.3179 14.8866 19.3014 14.8979 19.2833 14.9056C19.2651 14.9133 19.2456 14.9172 19.2259 14.9172Z" fill="#F8B86D"/>
<path d="M11.0838 14.9172C11.1228 14.9172 11.1601 14.9018 11.1877 14.8742C11.2152 14.8467 11.2307 14.8093 11.2307 14.7703V14.2152C11.2307 14.1762 11.2152 14.1388 11.1877 14.1113C11.1601 14.0838 11.1228 14.0683 11.0838 14.0683H9.5879V11.3511C9.5879 11.3121 9.57242 11.2748 9.54488 11.2472C9.51733 11.2197 9.47998 11.2042 9.44102 11.2042H8.8829C8.84394 11.2042 8.80659 11.2197 8.77904 11.2472C8.7515 11.2748 8.73602 11.3121 8.73602 11.3511V14.7681C8.73602 14.8071 8.7515 14.8445 8.77904 14.872C8.80659 14.8995 8.84394 14.915 8.8829 14.915H11.086L11.0838 14.9172Z" fill="#F8B86D"/>
<path d="M12.4086 11.1984H11.8535C11.7707 11.1984 11.7036 11.2654 11.7036 11.3482V14.7674C11.7036 14.8502 11.7707 14.9172 11.8535 14.9172H12.4086C12.4914 14.9172 12.5585 14.8502 12.5585 14.7674V11.3482C12.5585 11.2654 12.4914 11.1984 12.4086 11.1984Z" fill="#F8B86D"/>
<path d="M16.1914 11.1984H15.6362C15.5973 11.1984 15.5599 11.2138 15.5324 11.2414C15.5048 11.2689 15.4894 11.3063 15.4894 11.3452V13.3765L13.9251 11.2637C13.9216 11.2581 13.9174 11.253 13.9126 11.2483L13.9038 11.2395L13.8958 11.2329H13.8914L13.8833 11.227H13.8789L13.8708 11.2226H13.8656H13.8576H13.8524H13.8436H13.8377H13.8289H13.8231H13.815H13.2488C13.2098 11.2226 13.1725 11.2381 13.1449 11.2656C13.1174 11.2932 13.1019 11.3305 13.1019 11.3695V14.7887C13.1019 14.8277 13.1174 14.865 13.1449 14.8926C13.1725 14.9201 13.2098 14.9356 13.2488 14.9356H13.8047C13.8436 14.9356 13.881 14.9201 13.9086 14.8926C13.9361 14.865 13.9516 14.8277 13.9516 14.7887V12.7376L15.518 14.8526C15.5283 14.8676 15.5412 14.8805 15.5562 14.8908L15.565 14.8967H15.5694L15.5767 14.9003H15.5841H15.5892H15.5995C15.6125 14.9035 15.6258 14.9053 15.6392 14.9055H16.1914C16.2304 14.9055 16.2677 14.89 16.2953 14.8625C16.3228 14.8349 16.3383 14.7976 16.3383 14.7586V11.3482C16.3387 11.3286 16.3352 11.3092 16.328 11.2911C16.3208 11.2729 16.31 11.2564 16.2963 11.2424C16.2826 11.2285 16.2663 11.2174 16.2483 11.2098C16.2303 11.2023 16.211 11.1984 16.1914 11.1984Z" fill="#F8B86D"/>
</svg>
