<svg width="86" height="86" viewBox="0 0 86 86" fill="none" xmlns="http://www.w3.org/2000/svg">
<path fill-rule="evenodd" clip-rule="evenodd" d="M59.6121 12.9567C59.6121 14.5894 58.2886 15.9129 56.6559 15.9129C55.0232 15.9129 53.6997 14.5894 53.6997 12.9567C53.6997 11.324 55.0232 10.0004 56.6559 10.0004C58.2886 10.0004 59.6121 11.324 59.6121 12.9567ZM73.4412 10.0004L59.9925 32.2998H56.2576L69.7072 10.0004H73.4412ZM55.2902 37.3132C50.4594 37.3132 46.096 38.4847 43.2243 40.5391V23.8816C43.2243 21.5331 41.5142 19.3852 38.4088 17.8324C35.3536 16.3049 31.1638 15.4633 26.6117 15.4633C22.0596 15.4633 17.8698 16.3049 14.8147 17.8324C11.7101 19.3843 10 21.5331 10 23.8816V67.5813C10 69.9297 11.7101 72.0777 14.8156 73.6304C17.8716 75.158 22.0605 75.9995 26.6126 75.9995C33.2219 75.9995 38.9275 74.2148 41.6078 71.326C44.1387 74.2148 49.3454 75.9995 55.2902 75.9995C63.8397 75.9995 70.5371 72.3015 70.5371 67.5813V45.7314C70.5371 41.0112 63.8397 37.3132 55.2902 37.3132ZM67.3561 61.8486V67.5813C67.3561 68.7771 66.1216 70.0844 64.0546 71.0788C61.7224 72.2008 58.6097 72.8185 55.2902 72.8185C51.9707 72.8185 48.8581 72.2008 46.5258 71.0788C44.4588 70.0844 43.2243 68.7762 43.2243 67.5813V61.8486C46.096 63.904 50.4594 65.0755 55.2902 65.0755C60.1211 65.0755 64.4844 63.904 67.3561 61.8486ZM67.3561 50.9237V56.6563C67.3561 57.8521 66.1216 59.1594 64.0546 60.1538C61.7224 61.2759 58.6097 61.8936 55.2902 61.8936C51.9707 61.8936 48.8581 61.2759 46.5258 60.1538C44.4588 59.1594 43.2243 57.8512 43.2243 56.6563V50.9237C46.096 52.979 50.4594 54.1506 55.2902 54.1506C60.1211 54.1506 64.4844 52.979 67.3561 50.9237ZM64.0546 49.2289C61.7224 50.351 58.6097 50.9687 55.2902 50.9687C51.9707 50.9687 48.8581 50.351 46.5258 49.2289C44.4588 48.2345 43.2243 46.9263 43.2243 45.7314C43.2243 44.5365 44.4588 43.2283 46.5258 42.2339C48.8581 41.1119 51.9707 40.4942 55.2902 40.4942C58.6097 40.4942 61.7215 41.1119 64.0546 42.2339C66.1216 43.2283 67.3561 44.5365 67.3561 45.7314C67.3561 46.9263 66.1216 48.2345 64.0546 49.2289ZM13.181 61.747C16.2451 63.8662 21.1038 65.0755 26.6126 65.0755C32.1214 65.0755 36.9801 63.8662 40.0442 61.747V67.5813C40.0442 68.7591 38.638 70.0646 36.2833 71.0725C33.6534 72.1981 30.2189 72.8185 26.6126 72.8185C23.0063 72.8185 19.5718 72.1981 16.9419 71.0725C14.5872 70.0646 13.181 68.7591 13.181 67.5813V61.747ZM36.2833 60.1484C33.6534 61.2741 30.2189 61.8945 26.6126 61.8945C23.0063 61.8945 19.5718 61.2741 16.9419 60.1484C14.5872 59.1406 13.181 57.8351 13.181 56.6572V50.823C16.2451 52.9422 21.1038 54.1515 26.6126 54.1515C32.1214 54.1515 36.9801 52.9422 40.0442 50.823V56.6572C40.0442 57.8351 38.638 59.1406 36.2833 60.1484ZM36.2833 49.2235C33.6534 50.3492 30.2189 50.9696 26.6126 50.9696C23.0063 50.9696 19.5718 50.3492 16.9419 49.2235C14.5872 48.2156 13.181 46.9101 13.181 45.7323V39.8981C16.2451 42.0173 21.1038 43.2265 26.6126 43.2265C32.1214 43.2265 36.9801 42.0173 40.0442 39.8981V45.7323C40.0442 46.9101 38.638 48.2156 36.2833 49.2235ZM36.2833 38.2986C33.6534 39.4243 30.2189 40.0446 26.6126 40.0446C23.0063 40.0446 19.5718 39.4243 16.9419 38.2986C14.5872 37.2907 13.181 35.9852 13.181 34.8074V28.9732C16.2451 31.0923 21.1038 32.3016 26.6126 32.3016C32.1214 32.3016 36.9801 31.0923 40.0442 28.9732V34.8074C40.0442 35.9852 38.638 37.2907 36.2833 38.2986ZM36.2833 27.3737C33.6534 28.4993 30.2189 29.1197 26.6126 29.1197C23.0063 29.1197 19.5718 28.4993 16.9419 27.3737C14.5872 26.3658 13.181 25.0603 13.181 23.8825C13.181 22.7047 14.5872 21.3992 16.9419 20.3913C19.5718 19.2647 23.0063 18.6452 26.6126 18.6452C30.2189 18.6452 33.6534 19.2656 36.2833 20.3913C38.638 21.3992 40.0442 22.7047 40.0442 23.8825C40.0442 25.0603 38.638 26.3658 36.2833 27.3737ZM70.0875 29.3445C70.0875 27.7144 71.4137 26.3883 73.0437 26.3883C74.6738 26.3883 76 27.7144 76 29.3445C76 30.9746 74.6738 32.3007 73.0437 32.3007C71.4137 32.3007 70.0875 30.9746 70.0875 29.3445Z" fill="#F8B86D"/>
</svg>
