<svg width="25" height="24" viewBox="0 0 25 24" fill="none" xmlns="http://www.w3.org/2000/svg">
<path d="M12.4938 2.5C16.9233 2.5 20.575 6.032 20.575 10.4019C20.575 12.6039 19.7742 14.6482 18.456 16.381C17.0019 18.2923 15.2096 19.9576 13.1921 21.2648C12.7304 21.5669 12.3137 21.5897 11.8069 21.2648C9.778 19.9576 7.98569 18.2923 6.54398 16.381C5.22489 14.6482 4.425 12.6039 4.425 10.4019C4.425 6.032 8.07669 2.5 12.4938 2.5ZM12.4938 7.98799C11.0291 7.98799 9.83452 9.19541 9.83452 10.6479C9.83452 12.1118 11.0291 13.2632 12.4938 13.2632C13.9594 13.2632 15.1655 12.1118 15.1655 10.6479C15.1655 9.19541 13.9594 7.98799 12.4938 7.98799Z" fill="#F8B86D"/>
</svg>
