<svg width="25" height="24" viewBox="0 0 25 24" fill="none" xmlns="http://www.w3.org/2000/svg">
<path fill-rule="evenodd" clip-rule="evenodd" d="M14.6198 3.00714C14.419 2.97836 14.2173 3.03772 14.0569 3.16543C13.892 3.29494 13.7889 3.48201 13.7665 3.69157C13.719 4.11517 14.0246 4.49831 14.4477 4.54598C17.3652 4.87155 19.6328 7.14429 19.9609 10.0709C20.0048 10.463 20.3337 10.7589 20.7263 10.7589C20.7559 10.7589 20.7846 10.7571 20.8142 10.7535C21.0194 10.731 21.2023 10.6294 21.3313 10.4675C21.4595 10.3056 21.5178 10.1041 21.4945 9.89819C21.0857 6.2467 18.2597 3.41276 14.6198 3.00714ZM14.6769 6.14098C14.2485 6.06183 13.855 6.33525 13.7734 6.75346C13.6919 7.17167 13.9661 7.57999 14.3829 7.66183C15.6377 7.90646 16.6067 8.87779 16.8522 10.1369C16.9222 10.4994 17.2412 10.7638 17.6087 10.7638C17.658 10.7638 17.7073 10.7593 17.7575 10.7503C18.1743 10.6667 18.4486 10.2592 18.367 9.84013C18.0004 7.95953 16.5529 6.50703 14.6769 6.14098ZM15.7743 14.119C14.764 14.4729 13.6259 14.8716 11.6289 12.8752C9.63208 10.879 10.0298 9.74022 10.3829 8.72946C10.6646 7.92294 10.9179 7.1979 9.90338 6.18369C9.62887 5.90926 9.38183 5.64925 9.15426 5.40974C7.55485 3.72636 6.91719 3.05522 4.46692 5.50565C4.4486 5.52844 4.4171 5.5592 4.37641 5.59895C3.79274 6.16901 1.31533 8.58865 8.61648 15.8878C15.9156 23.1848 18.3337 20.7075 18.9041 20.1231C18.9439 20.0823 18.9748 20.0507 18.9976 20.0323C21.4466 17.5841 20.7732 16.9436 19.0838 15.3366C18.847 15.1114 18.5903 14.8672 18.3194 14.5964C17.305 13.5827 16.5804 13.8366 15.7743 14.119Z" fill="#F8B86D"/>
</svg>
