<svg width="30" height="30" viewBox="0 0 30 30" fill="none" xmlns="http://www.w3.org/2000/svg">
<path d="M15.022 4C21.27 4 26 9.12268 26 14.9835C26 21.7807 20.456 26 15 26C13.196 26 11.194 25.5153 9.588 24.5679C9.027 24.2263 8.554 23.973 7.949 24.1713L5.727 24.8322C5.166 25.0085 4.66 24.5679 4.825 23.973L5.562 21.5053C5.683 21.1637 5.661 20.8002 5.485 20.5138C4.539 18.7732 4 16.8673 4 15.0165C4 9.22183 8.631 4 15.022 4ZM20.049 13.6174C19.268 13.6174 18.641 14.2454 18.641 15.0275C18.641 15.7987 19.268 16.4377 20.049 16.4377C20.83 16.4377 21.457 15.7987 21.457 15.0275C21.457 14.2454 20.83 13.6174 20.049 13.6174ZM14.978 13.6174C14.208 13.6064 13.57 14.2454 13.57 15.0165C13.57 15.7987 14.197 16.4266 14.978 16.4377C15.759 16.4377 16.386 15.7987 16.386 15.0275C16.386 14.2454 15.759 13.6174 14.978 13.6174ZM9.907 13.6174C9.126 13.6174 8.499 14.2454 8.499 15.0275C8.499 15.7987 9.137 16.4377 9.907 16.4377C10.688 16.4266 11.315 15.7987 11.315 15.0275C11.315 14.2454 10.688 13.6174 9.907 13.6174Z" fill="white"/>
</svg>
