<svg width="86" height="86" viewBox="0 0 86 86" fill="none" xmlns="http://www.w3.org/2000/svg">
<path fill-rule="evenodd" clip-rule="evenodd" d="M10 43C10 24.8036 24.8036 10 43 10C61.1964 10 76 24.8036 76 43C76 61.1964 61.1964 76 43 76C24.8036 76 10 61.1964 10 43ZM15.5004 43C15.5004 58.1632 27.8368 70.4996 43 70.4996C58.1632 70.4996 70.4996 58.1632 70.4996 43C70.4996 27.8368 58.1632 15.5004 43 15.5004C27.8368 15.5004 15.5004 27.8368 15.5004 43ZM39.2721 39.5916L47.6342 40.9864C51.3248 41.5987 54.0009 44.7607 54.0009 48.5003C53.9996 53.0481 50.2987 56.749 45.7509 56.749V59.4986C45.7509 61.0184 44.5211 62.2482 43.0013 62.2482C41.4815 62.2482 40.2517 61.0197 40.2517 59.4986V56.749H39.5144C36.5805 56.749 33.8412 55.1699 32.3704 52.6266C31.6099 51.3092 32.0598 49.6295 33.372 48.8703C34.6894 48.1033 36.3717 48.5596 37.1283 49.8719C37.6208 50.7252 38.5347 51.2499 39.5131 51.2499H45.7496C47.2668 51.2499 48.4992 50.0188 48.4992 48.5003C48.4992 47.4613 47.7541 46.5809 46.728 46.4107L38.3658 45.016C34.6753 44.4037 31.9992 41.2403 31.9992 37.5007C31.9992 32.9516 35.7001 29.2507 40.2492 29.2507V26.5012C40.2492 24.9839 41.4789 23.7516 42.9987 23.7516C44.5185 23.7516 45.7483 24.9827 45.7483 26.5012V29.2507H46.4857C49.4196 29.2507 52.1588 30.8324 53.6296 33.3757C54.3902 34.6906 53.9403 36.3702 52.628 37.1321C51.308 37.8939 49.6284 37.4427 48.8717 36.1279C48.3793 35.2771 47.4653 34.7525 46.4869 34.7525H40.2505C38.7332 34.7525 37.5009 35.9874 37.5009 37.502C37.5009 38.541 38.246 39.4214 39.2721 39.5916Z" fill="#F8B86D"/>
</svg>
