<svg width="86" height="86" viewBox="0 0 86 86" fill="none" xmlns="http://www.w3.org/2000/svg">
<path fill-rule="evenodd" clip-rule="evenodd" d="M56.1838 13.9718H63.8233C66.7404 13.9718 69.1159 16.3473 69.1254 19.2643V70.7075C69.1254 73.6245 66.7499 76 63.8329 76H22.1671C19.2501 76 16.8746 73.6245 16.8746 70.7075V19.2643C16.8746 16.3473 19.2501 13.9718 22.1671 13.9718H29.8162V13.8007C29.8162 11.7008 31.517 10 33.6169 10H52.3831C54.483 10 56.1838 11.7008 56.1838 13.8007V13.9718ZM52.3926 13.8007H33.6169V19.4354H52.3926V13.8007ZM63.8233 72.4748C64.802 72.4748 65.5907 71.6766 65.5907 70.7075H65.6002V19.2643C65.6002 18.2856 64.802 17.497 63.8329 17.497H56.1933V19.4354C56.1933 21.5353 54.4925 23.2361 52.3926 23.2361H33.6169C31.517 23.2361 29.8162 21.5353 29.8162 19.4354V17.497H22.1671C21.1885 17.497 20.3998 18.2951 20.3998 19.2643V70.7075C20.3998 71.6861 21.198 72.4748 22.1671 72.4748H63.8233ZM28.4004 33.7927H58.4263C59.481 33.7927 60.3267 34.6479 60.3267 35.6931C60.3267 36.7383 59.4715 37.5934 58.4263 37.5934H28.4004C27.3552 37.5934 26.5 36.7383 26.5 35.6931C26.5 34.6479 27.3552 33.7927 28.4004 33.7927ZM28.4004 45.0429H58.4263C59.481 45.0429 60.3267 45.8886 60.3267 46.9433C60.3267 47.9885 59.4715 48.8436 58.4263 48.8436H28.4004C27.3552 48.8436 26.5 47.9885 26.5 46.9433C26.5 45.8981 27.3552 45.0429 28.4004 45.0429ZM28.4004 56.2836H44.7626C45.8078 56.2836 46.663 57.1388 46.663 58.184C46.663 59.2292 45.8078 60.0844 44.7626 60.0844H28.4004C27.3552 60.0844 26.5 59.2292 26.5 58.184C26.5 57.1388 27.3552 56.2836 28.4004 56.2836Z" fill="#F8B86D"/>
</svg>
