<svg width="86" height="86" viewBox="0 0 86 86" fill="none" xmlns="http://www.w3.org/2000/svg">
<path d="M75.2279 71.3426L58.8269 54.9417C68.448 43.1748 66.708 25.8375 54.9411 16.2165C43.1756 6.59536 25.837 8.3354 16.2159 20.1022C6.59484 31.8691 8.33488 49.2064 20.1017 58.8275C30.2367 67.1142 44.8074 67.1142 54.9424 58.8275L71.3434 75.2284C72.4343 76.2819 74.1743 76.2523 75.2292 75.1614C76.257 74.0963 76.257 72.409 75.2292 71.3439L75.2279 71.3426ZM37.5652 59.5474C25.4249 59.5474 15.5835 49.7061 15.5835 37.5657C15.5835 25.4254 25.4262 15.5854 37.5652 15.5854C49.7043 15.5854 59.5469 25.4267 59.5469 37.567C59.5327 49.7009 49.7004 59.5345 37.5652 59.5487V59.5474Z" fill="#F8B86D"/>
</svg>
